<svg t="1722954326237" class="icon" viewBox="0 0 1024 1024" version="1.1" xmlns="http://www.w3.org/2000/svg" p-id="11508" width="16" height="16"><path d="M0 0h1024v1024H0z" fill="#707070" fill-opacity="0" p-id="11509"></path><path d="M239.104 138.24h162.304v747.52H239.104a51.2 51.2 0 0 1-51.2-51.2V189.44a51.2 51.2 0 0 1 51.2-51.2z" fill="#F8A520" opacity=".4" p-id="11510"></path><path d="M749.056 885.76H350.208a27.648 27.648 0 0 1-27.136-27.648V165.376a27.136 27.136 0 0 1 27.136-27.136h439.808a46.08 46.08 0 0 1 46.08 46.08v655.36a46.08 46.08 0 0 1-46.08 46.08h-40.96z m-176.64-214.016z m-3.072 0z m0 0z m0 0h2.56z m2.56-48.64z" fill="#FFB13C" p-id="11511"></path><path d="M372.736 361.472m24.576 0l66.56 0q24.576 0 24.576 24.576l0 0q0 24.576-24.576 24.576l-66.56 0q-24.576 0-24.576-24.576l0 0q0-24.576 24.576-24.576Z" fill="#FCDBA5" p-id="11512"></path><path d="M372.736 623.104m24.576 0l66.56 0q24.576 0 24.576 24.576l0 0q0 24.576-24.576 24.576l-66.56 0q-24.576 0-24.576-24.576l0 0q0-24.576 24.576-24.576Z" fill="#FCDBA5" p-id="11513"></path><path d="M436.224 361.472m24.576 0l261.12 0q24.576 0 24.576 24.576l0 0q0 24.576-24.576 24.576l-261.12 0q-24.576 0-24.576-24.576l0 0q0-24.576 24.576-24.576Z" fill="#FFFFFF" p-id="11514"></path><path d="M436.224 623.104m24.576 0l261.12 0q24.576 0 24.576 24.576l0 0q0 24.576-24.576 24.576l-261.12 0q-24.576 0-24.576-24.576l0 0q0-24.576 24.576-24.576Z" fill="#FFFFFF" p-id="11515"></path></svg>