<svg t="1722847663727" class="icon" viewBox="0 0 1024 1024" version="1.1"
    xmlns="http://www.w3.org/2000/svg" p-id="2624" width="16" height="16">
    <path
        d="M181.613714 121.782857v571.136s236.909714 26.331429 318.464 73.654857V219.209143C373.76 121.782857 181.613714 121.782857 181.613714 121.782857z m797.513143 658.029714h-336.822857c-13.165714 2.633143-31.634286 7.936-55.296 26.331429-29.001143 23.661714-55.296 21.028571-63.232 21.028571-5.229714 0-31.597714 2.633143-63.195429-21.065142-23.698286-18.468571-57.929143-23.661714-71.058285-26.294858h-336.822857C10.496 779.812571 0 732.452571 0 732.452571V158.72h49.956571v568.539429h78.994286V64s255.268571 0 381.586286 107.885714c126.317714-107.885714 405.284571-107.885714 405.284571-107.885714v668.452571h52.772572V158.72h52.662857v573.732571c7.936 0 0 47.36-42.130286 47.36z m-426.349714-10.532571c81.554286-49.956571 313.161143-73.654857 313.161143-73.654857V121.819429s-192.146286 0-318.464 94.72c2.706286 10.605714 5.302857 515.913143 5.302857 552.740571z"
        fill="#315178" p-id="2625"></path>
    <path
        d="M151.442286 964.242286a23.478857 23.478857 0 0 1 0-46.921143h703.414857a23.478857 23.478857 0 0 1 0 46.921143H151.442286z"
        fill="#315178" opacity=".3" p-id="2626"></path>
</svg> 